<svg viewBox="125.7906 1487.7390265486724 8365.0749 2587.827743362832" xmlns:xlink="http://www.w3.org/1999/xlink" xmlns="http://www.w3.org/2000/svg" data-name="Ñëîé 2" id="_Ñëîé_2" style="max-height: 500px" width="8365.0749" height="2587.827743362832">
  <defs>
    <clipPath id="clippath">
      <rect style="fill: none; stroke-width: 0px;" height="2500" width="8000" y="1518.5" x="458.5"/>
    </clipPath>
  </defs>
  <g style="clip-path: url(#clippath);">
    <g>
      <path style="fill: none; stroke: #fff; stroke-miterlimit: 10; stroke-width: .5px;" d="M7,1546c1781.47-581.45,2578.65-325.57,2976.75,22.5,330.53,288.99,388.06,643.38,988.34,1130.95,182.96,148.61,612.65,491.04,1245.91,682.55,963.87,291.49,1458.8-51.11,1876.5,324,158.97,142.76,341.9,421.04,334.43,1022.62"/>
      <path style="fill: none; stroke: #fff; stroke-miterlimit: 10; stroke-width: .53px;" d="M7544.31,4666.15c-8.55-561.91-201.45-819.79-368.61-959.77-231.81-194.12-481.17-187.91-814.69-198.14-279.82-8.59-601.63-28.56-1015.78-165.21-177.28-58.5-339.29-129.27-487.67-202.95-354.71-175.31-608.48-364.11-742.44-464.06-488.06-364.17-622.73-655.75-842.95-904.61-47.53-53.72-98.32-105.97-157.85-156.28-400.53-337.29-1180.04-607.95-2877.73-143.77"/>
      <path style="fill: none; stroke: #fff; stroke-miterlimit: 10; stroke-width: .56px;" d="M7659.69,4603.68c-24.58-522.24-227.16-759.79-402.79-896.93-232.8-181.78-478.51-180.89-802.44-203.78-280.86-19.85-586.19-56.47-982-198.91-170.46-61.34-327.54-134.42-475.67-209.06-346.83-173.22-600.15-347.88-738.63-442.42-482.57-329.45-625.78-601.63-854.46-841.31-48.39-50.71-99.31-100.99-158.81-149.52-402.95-326.5-1164.81-611.94-2778.71-265.04"/>
      <path style="fill: none; stroke: #fff; stroke-miterlimit: 10; stroke-width: .59px;" d="M7775.07,4541.22c-40.61-482.57-252.59-699.88-436.97-834.08-233.29-169.8-476.02-174.43-790.19-209.43-282.11-31.43-570.76-84.47-948.22-232.61-163.65-64.22-315.61-139.95-463.67-215.16-338.52-171.98-591.48-331.66-734.83-420.77-475.64-295.68-628.56-547.55-865.97-778.01-49.18-47.74-100.2-96.15-159.76-142.77-404.62-316.68-1149.57-615.93-2679.69-386.32"/>
      <path style="fill: none; stroke: #fff; stroke-miterlimit: 10; stroke-width: .62px;" d="M7890.45,4478.75c-56.64-442.9-277.74-640.12-471.15-771.24-233.35-158.19-473.66-168.55-777.94-215.07-283.54-43.35-555.35-112.57-914.44-266.31-156.84-67.14-303.82-145.19-451.67-221.27-330.53-170.08-582.46-315.52-731.03-399.13-467.33-263.01-631.07-493.55-877.48-714.71-49.9-44.79-101.17-91.2-160.72-136.01-406.89-306.16-1134.33-619.92-2580.67-507.59"/>
      <path style="fill: none; stroke: #fff; stroke-miterlimit: 10; stroke-width: .66px;" d="M8005.83,4416.28c-72.67-403.23-302.64-580.56-505.33-708.39-233.03-146.97-471.37-163.23-765.69-220.71-285.07-55.67-539.93-140.79-880.66-300-150.04-70.11-292.03-150.42-439.66-227.38-322.56-168.14-573.11-299.53-727.22-377.49-457.75-231.55-633.32-439.68-889-651.41-50.57-41.88-102.15-86.25-161.67-129.26-409.19-295.6-1119.1-623.91-2481.65-628.86"/>
      <path style="fill: none; stroke: #fff; stroke-miterlimit: 10; stroke-width: .69px;" d="M8121.21,4353.82c-88.7-363.56-327.3-521.23-539.51-645.55-232.37-136.13-469.09-158.49-753.44-226.36-286.66-68.43-524.51-169.12-846.89-333.7-143.24-73.12-280.26-155.64-427.66-233.48-314.61-166.15-563.43-283.76-723.42-355.84-447.02-201.4-635.31-385.98-900.51-588.11-51.18-39.01-103.13-81.3-162.63-122.5-411.54-284.99-1103.86-627.9-2382.62-750.13"/>
      <path style="fill: none; stroke: #fff; stroke-miterlimit: 10; stroke-width: .72px;" d="M8236.59,4291.35c-104.73-323.89-351.74-462.18-573.7-582.7-231.44-125.66-466.78-154.28-741.19-232-288.23-81.64-509.06-197.59-813.11-367.4-136.43-76.19-268.49-160.83-415.66-239.59-306.69-164.12-553.46-268.31-719.61-334.2-435.32-172.62-637.05-332.49-912.02-524.81-51.74-36.18-104.12-76.33-163.58-115.74-413.93-274.34-1088.62-631.9-2283.6-871.4"/>
      <path style="fill: none; stroke: #fff; stroke-miterlimit: 10; stroke-width: .75px;" d="M8351.97,4228.88c-120.75-284.22-375.97-403.47-607.88-519.86-230.27-115.57-464.36-150.58-728.94-237.65-289.72-95.34-493.57-226.2-779.33-401.1-129.6-79.32-256.73-166.01-403.66-245.7-298.79-162.05-543.23-253.28-715.81-312.55-422.83-145.23-638.57-279.26-923.53-461.51-52.25-33.41-105.12-71.36-164.54-108.99-416.35-263.63-1073.39-635.89-2184.58-992.68"/>
      <path style="fill: none; stroke: #fff; stroke-miterlimit: 10; stroke-width: .78px;" d="M8467.35,4166.42c-136.78-244.55-400.03-345.12-642.06-457.01-228.94-105.84-461.8-147.35-716.69-243.29-291.05-109.55-478.02-254.96-745.55-434.8-122.75-82.52-244.98-171.16-391.66-251.8-290.91-159.93-532.77-238.75-712.01-290.91-409.76-119.24-639.89-226.33-935.04-398.21-52.72-30.7-106.12-66.38-165.49-102.23-418.82-252.87-1058.15-639.88-2085.56-1113.95"/>
      <path style="fill: none; stroke: #fff; stroke-miterlimit: 10; stroke-width: .81px;" d="M8582.73,4103.95c-152.81-204.88-423.93-287.18-676.24-394.17-227.47-96.45-459.04-144.54-704.44-248.94-292.14-124.28-462.39-283.87-711.77-468.5-115.86-85.78-233.24-176.3-379.66-257.91-283.05-157.77-522.15-224.85-708.2-269.27-396.32-94.61-641.03-173.75-946.55-334.9-53.17-28.05-107.13-61.4-166.45-95.47-421.32-242.04-1042.91-643.87-1986.54-1235.22"/>
      <path style="fill: none; stroke: #fff; stroke-miterlimit: 10; stroke-width: .84px;" d="M8698.11,4041.48c-168.84-165.21-447.7-229.69-710.42-331.32-225.93-87.4-456.04-142.1-692.19-254.58-292.91-139.53-446.64-312.92-677.99-502.2-108.92-89.11-221.52-181.41-367.66-264.02-275.22-155.57-511.44-211.68-704.4-247.62-382.76-71.3-642.04-121.53-958.06-271.6-53.6-25.45-108.14-56.4-167.4-88.72-423.86-231.15-1027.68-647.86-1887.52-1356.49"/>
      <path style="fill: none; stroke: #fff; stroke-miterlimit: 10; stroke-width: .88px;" d="M8813.49,3979.02c-184.87-125.54-471.37-172.67-744.6-268.48-224.35-78.66-452.77-139.96-679.94-260.22-293.3-155.28-430.75-342.12-644.21-535.9-101.9-92.51-209.81-186.5-355.66-270.12-267.41-153.33-500.72-199.34-700.59-225.98-369.32-49.21-642.96-69.72-969.58-208.3-54.01-22.92-109.16-51.39-168.36-81.96-426.42-220.19-1012.44-651.85-1788.5-1477.76"/>
      <path style="fill: none; stroke: #fff; stroke-miterlimit: 10; stroke-width: .91px;" d="M8928.87,3916.55c-200.9-85.87-494.98-116.17-778.78-205.63-222.77-70.22-449.18-138.07-667.69-265.87-293.24-171.52-414.68-371.44-610.43-569.6-94.81-95.97-198.11-191.56-343.66-276.23-259.63-151.05-490.11-187.94-696.79-204.33-356.26-28.25-643.82-18.33-981.09-145-54.42-20.44-110.17-46.37-169.31-75.2-429.02-209.15-997.2-655.85-1689.48-1599.04"/>
      <path style="fill: none; stroke: #fff; stroke-miterlimit: 10; stroke-width: .94px;" d="M9044.25,3854.08c-216.93-46.2-518.54-60.2-812.97-142.79-221.24-62.06-445.27-136.36-655.44-271.51-292.66-188.21-398.41-400.86-576.65-603.3-87.6-99.49-186.44-196.59-331.66-282.34-251.87-148.73-479.73-177.56-692.99-182.69-343.82-8.28-644.68,32.63-992.6-81.7-54.84-18.02-111.2-41.35-170.26-68.45-431.63-198.03-981.97-659.84-1590.46-1720.31"/>
      <path style="fill: none; stroke: #fff; stroke-miterlimit: 10; stroke-width: .97px;" d="M9159.63,3791.62c-232.95-6.53-542.11-4.79-847.15-79.94-219.79-54.15-441.01-134.77-643.18-277.16-291.52-205.3-381.9-430.34-542.88-637-80.27-103.05-174.89-201.41-319.65-288.44-244.33-146.06-469.7-168.22-689.18-161.05-332.25,10.87-645.57,83.17-1004.11-18.4-55.28-15.66-112.25-36.24-171.22-61.69-434.48-186.32-966.73-663.83-1491.44-1841.58"/>
      <path style="fill: none; stroke: #fff; stroke-miterlimit: 10;" d="M9275.01,3729.15c-421.32,56.08-1036.64,65.71-1512.26-299.9-436.33-335.4-386.49-703.27-816.75-965.25-574.29-349.69-1073.61,55.72-1701-94.5-468.93-112.28-1064.2-548.08-1564.59-2017.79"/>
      <path style="fill: none; stroke: #fff; stroke-miterlimit: 10; stroke-width: .97px;" d="M3815.32,330.17c208.13,703.71,448.71,1176.71,707.72,1484.47,252.65,300.2,511.61,439.24,743.05,498.33,379.62,97.93,713.67-26.57,1073.23-60.79,223.03-21.22,446.44-5.38,678.8,121.92,162.09,88.8,263.94,192.27,343.69,309.86,141.95,208.92,205.4,451.08,463.57,680.11,85.8,76.11,177.42,139.83,278.29,189.35,202.86,99.16,428.48,138.2,633.97,146.06,234.88,8.99,444.44-31.66,612.41-57.91"/>
      <path style="fill: none; stroke: #fff; stroke-miterlimit: 10; stroke-width: .94px;" d="M3950.23,308.62c165.39,670.56,371.85,1139.4,619.14,1448.5,236.19,295.24,488.89,436.58,717.81,499.31,379.55,104,714.44-31.09,1102.48-74.28,230.41-25.65,462.57-14.77,700.59,102.06,168.92,82.91,279.71,181.48,363.54,300.94,150.07,213.15,196.63,470.57,434.22,713.76,80.38,82.28,167.2,153.19,269.78,207.39,205.34,107.71,445.07,148.96,652.1,141.87,248.83-8.53,456.43-65.25,615.18-94.16"/>
      <path style="fill: none; stroke: #fff; stroke-miterlimit: 10; stroke-width: .91px;" d="M4085.15,287.08c122.64,637.41,295.05,1101.89,530.56,1412.54,219.88,290.04,466.11,434.26,692.58,500.29,379.36,110.6,715.2-35.39,1131.74-87.78,237.79-29.91,478.89-24.32,722.37,82.2,175.86,76.93,295.47,170.69,383.39,292.02,158.18,217.38,187.74,490.66,404.88,747.4,74.96,88.63,156.87,166.75,261.26,225.43,207.58,116.67,461.52,144.57,670.24,137.68,263.2-8.68,468.42-98.84,617.96-130.4"/>
      <path style="fill: none; stroke: #fff; stroke-miterlimit: 10; stroke-width: .88px;" d="M4220.06,265.54c79.9,604.26,218.34,1064.16,441.98,1376.58,203.73,284.6,443.31,431.97,667.34,501.26,379.16,117.28,715.98-39.49,1160.99-101.28,245.19-34.04,495.34-34.04,744.15,62.33,182.91,70.85,311.24,159.9,403.24,283.1,166.3,221.6,178.61,511.33,375.53,781.05,69.48,95.17,146.63,180.15,252.75,243.47,210.01,125.3,478.13,147.17,688.37,133.5,277.49-18.05,480.4-132.42,620.74-166.65"/>
      <path style="fill: none; stroke: #fff; stroke-miterlimit: 10; stroke-width: .84px;" d="M4354.97,243.99c37.15,571.11,141.74,1026.21,353.4,1340.61,187.77,278.92,420.51,429.73,642.1,502.24,378.95,124.01,716.77-43.42,1190.24-114.78,252.59-38.07,511.92-43.94,765.94,42.47,190.04,64.64,327.01,149.11,423.09,274.18,174.41,225.83,169.15,532.5,346.19,814.7,63.91,101.87,136.39,193.53,244.24,261.51,212.44,133.9,494.76,149.46,706.51,129.31,291.82-27.77,492.39-166.01,623.51-202.9"/>
      <path style="fill: none; stroke: #fff; stroke-miterlimit: 10; stroke-width: .81px;" d="M4489.88,222.45c-5.6,537.97,65.3,988.02,264.81,1304.65,172.02,273,397.7,427.52,616.87,503.22,378.73,130.81,717.59-47.19,1219.49-128.27,260.01-42.01,528.59-54.02,787.72,22.6,197.23,58.32,342.78,138.32,442.94,265.25,182.53,230.06,159.29,554.07,316.85,848.34,58.21,108.72,126.16,206.9,235.72,279.55,214.88,142.47,511.38,151.47,724.64,125.12,306.14-37.82,504.38-199.6,626.29-239.15"/>
      <path style="fill: none; stroke: #fff; stroke-miterlimit: 10; stroke-width: .78px;" d="M4624.79,200.9c-48.34,504.82-10.93,949.6,176.23,1268.68,156.52,266.85,374.88,425.36,591.63,504.2,378.49,137.67,718.43-50.82,1248.74-141.77,267.44-45.87,545.32-64.27,809.5,2.74,204.47,51.86,358.54,127.52,462.79,256.33,190.64,234.29,148.98,575.95,287.5,881.99,52.35,115.67,115.93,220.27,227.21,297.59,217.34,151.02,527.97,153.25,742.78,120.93,320.41-48.21,516.37-233.19,629.07-275.4"/>
      <path style="fill: none; stroke: #fff; stroke-miterlimit: 10; stroke-width: .75px;" d="M4759.71,179.36c-91.09,471.67-86.89,910.94,87.65,1232.72,141.29,260.47,352.05,423.23,566.39,505.18,378.23,144.6,719.3-54.31,1277.99-155.27,274.89-49.68,562.09-74.68,831.29-17.12,211.75,45.28,374.31,116.73,482.64,247.41,198.76,238.52,138.23,598.02,258.16,915.63,46.33,122.7,105.71,233.62,218.7,315.63,219.81,159.56,544.53,154.84,760.92,116.75,334.63-58.91,528.35-266.77,631.84-311.65"/>
      <path style="fill: none; stroke: #fff; stroke-miterlimit: 10; stroke-width: .72px;" d="M4894.62,157.81c-133.83,438.52-162.53,872.04-.93,1196.75,126.35,253.89,329.2,421.14,541.16,506.15,377.94,151.59,720.2-57.68,1307.24-168.77,282.34-53.43,578.89-85.26,853.07-36.99,219.04,38.56,390.08,105.94,502.49,238.49,206.87,242.74,127.05,620.17,228.81,949.28,40.12,129.76,95.5,246.96,210.19,333.67,222.3,168.07,561.04,156.25,779.05,112.56,348.77-69.9,540.34-300.36,634.62-347.9"/>
      <path style="fill: none; stroke: #fff; stroke-miterlimit: 10; stroke-width: .69px;" d="M5029.53,136.27c-176.58,405.37-237.77,832.92-89.51,1160.79,111.75,247.12,306.34,419.08,515.92,507.13,377.63,158.65,721.12-60.94,1336.49-182.26,289.81-57.14,595.68-95.98,874.85-56.85,226.33,31.73,405.85,95.15,522.34,229.57,214.99,246.97,115.46,642.33,199.47,982.93,33.75,136.83,85.3,260.3,201.67,351.71,224.8,176.58,577.49,157.53,797.19,108.37,362.82-81.18,552.33-333.95,637.4-384.15"/>
      <path style="fill: none; stroke: #fff; stroke-miterlimit: 10; stroke-width: .66px;" d="M5164.44,114.72c-219.32,372.22-312.53,793.61-178.09,1124.82,97.5,240.21,283.46,417.06,490.68,508.11,377.28,165.77,722.07-64.1,1365.74-195.76,297.29-60.81,612.47-106.84,896.64-76.72,233.62,24.77,421.61,84.36,542.19,220.65,223.1,251.2,103.52,664.43,170.12,1016.57,27.21,143.89,75.28,273.41,193.16,369.75,227.65,184.66,593.89,158.68,815.32,104.19,376.77-92.72,564.31-367.54,640.17-420.4"/>
      <path style="fill: none; stroke: #fff; stroke-miterlimit: 10; stroke-width: .62px;" d="M5299.35,93.18c-262.07,339.07-386.71,754.12-266.67,1088.86,83.62,233.19,260.56,415.07,465.45,509.09,376.9,172.95,723.05-67.17,1395-209.26,304.78-64.45,629.22-117.83,918.42-96.58,240.89,17.7,437.38,73.57,562.04,211.72,231.22,255.43,91.27,686.41,140.78,1050.22,20.53,150.9,65.06,286.77,184.65,387.79,230.12,193.21,610.22,159.73,833.46,100,390.6-104.51,576.3-401.12,642.95-456.65"/>
      <path style="fill: none; stroke: #fff; stroke-miterlimit: 10; stroke-width: .59px;" d="M5434.26,71.63c-304.81,305.93-460.21,714.51-355.26,1052.89,70.14,226.13,237.64,413.11,440.21,510.07,376.48,180.19,724.05-70.16,1424.25-222.76,312.28-68.06,645.94-128.92,940.21-116.45,248.13,10.52,453.15,62.78,581.89,202.8,239.33,259.66,78.77,708.23,111.44,1083.86,13.73,157.86,54.85,300.13,176.13,405.83,232.6,201.76,626.49,160.69,851.59,95.81,404.31-116.54,588.29-434.71,645.73-492.9"/>
      <path style="fill: none; stroke: #fff; stroke-miterlimit: 10; stroke-width: .56px;" d="M5569.18,50.09c-347.56,272.78-532.94,674.85-443.84,1016.93,57.07,219.08,214.7,411.18,414.97,511.04,376.02,187.5,725.08-73.06,1453.5-236.25,319.79-71.65,662.62-140.11,961.99-136.31,255.34,3.24,468.92,51.99,601.74,193.88,247.45,263.88,66.05,729.88,82.09,1117.51,6.82,164.76,44.63,313.49,167.62,423.87,235.08,210.31,642.71,161.58,869.73,91.62,417.91-128.78,600.28-468.3,648.5-529.15"/>
      <path style="fill: none; stroke: #fff; stroke-miterlimit: 10; stroke-width: .53px;" d="M5704.09,28.54c-390.3,239.63-604.8,635.23-532.42,980.96,44.41,212.13,191.61,409.52,389.74,512.02,375.27,195.33,726.32-75.11,1482.75-249.75,327.39-74.87,679.24-151.39,983.77-156.17,262.51-4.13,484.68,41.2,621.59,184.96,255.56,268.11,53.17,751.35,52.75,1151.16-.18,171.59,34.42,326.84,159.11,441.91,237.56,218.86,658.86,162.41,887.86,87.44,431.38-141.23,612.26-501.89,651.28-565.4"/>
      <path style="fill: none; stroke: #fff; stroke-miterlimit: 10; stroke-width: .5px;" d="M5839,7c-433.05,206.48-675.69,595.75-621,945,32.16,205.35,168.76,407.4,364.5,513,374.96,202.29,727.21-78.66,1512-263.25,626.31-147.31,1344.04-312.92,1647,0,377.77,390.18-244.48,1248.27,174,1644.75,240.04,227.41,674.95,163.19,906,83.25,444.72-153.86,624.25-535.47,654.05-601.65"/>
    </g>
    <g>
      <g>
        <path style="fill: none; stroke: #98e6ed; stroke-linecap: round; stroke-linejoin: round; stroke-width: 14px;" d="M7,1546c2.38-.78,4.76-1.55,7.13-2.32"/>
        <path style="fill: none; stroke: #98e6ed; stroke-dasharray: 0 0 0 0 15.19 101.26 15.19 101.26; stroke-linecap: round; stroke-linejoin: round; stroke-width: 14px;" d="M110.56,1512.79c59.23-18.65,117.34-36.35,174.34-53.14"/>
        <path style="fill: none; stroke: #98e6ed; stroke-dasharray: 0 0 0 0 0 0 15.19 101.26 15.19 101.26 15.19 101.26; stroke-linecap: round; stroke-linejoin: round; stroke-width: 14px;" d="M333.51,1445.49c1554.25-448.19,2277.33-203.03,2650.24,123.01,330.53,288.99,388.06,643.38,988.34,1130.95,182.96,148.61,612.65,491.04,1245.91,682.55,963.87,291.49,1458.8-51.11,1876.5,324,153.76,138.08,329.93,402.94,334.56,964.49"/>
        <path style="fill: none; stroke: #98e6ed; stroke-linecap: round; stroke-linejoin: round; stroke-width: 14px;" d="M7429.01,4721.12c-.02,2.49-.05,4.99-.08,7.5"/>
      </g>
      <g>
        <path style="fill: none; stroke: #8fe3ee; stroke-linecap: round; stroke-linejoin: round; stroke-width: 14px;" d="M7544.31,4666.15c-.04-2.51-.08-5.01-.13-7.5"/>
        <path style="fill: none; stroke: #8fe3ee; stroke-dasharray: 0 0 0 0 14.73 98.21 14.73 98.21; stroke-linecap: round; stroke-linejoin: round; stroke-width: 14px;" d="M7540.37,4560.52c-3.79-62.67-10.02-121.15-18.34-175.77"/>
        <path style="fill: none; stroke: #8fe3ee; stroke-dasharray: 0 0 0 0 0 0 14.73 98.21 14.73 98.21 14.73 98.21; stroke-linecap: round; stroke-linejoin: round; stroke-width: 14px;" d="M7513.93,4336.32c-62.12-340.24-207.99-520.88-338.23-629.94-231.81-194.12-481.17-187.91-814.69-198.14-279.82-8.59-601.63-28.56-1015.78-165.21-177.28-58.5-339.29-129.27-487.67-202.95-354.71-175.31-608.48-364.11-742.44-464.06-488.06-364.17-622.73-655.75-842.95-904.61-47.53-53.72-98.32-105.97-157.85-156.28-396.2-333.65-1163.26-602.1-2823.08-158.55"/>
        <path style="fill: none; stroke: #8fe3ee; stroke-linecap: round; stroke-linejoin: round; stroke-width: 14px;" d="M243.82,1469.38c-2.41.66-4.82,1.32-7.24,1.98"/>
      </g>
      <g>
        <path style="fill: none; stroke: #85dfef; stroke-linecap: round; stroke-linejoin: round; stroke-width: 14px;" d="M7659.69,4603.68c-.12-2.5-.24-5-.37-7.49"/>
        <path style="fill: none; stroke: #85dfef; stroke-dasharray: 0 0 0 0 14.87 99.13 14.87 99.13; stroke-linecap: round; stroke-linejoin: round; stroke-width: 14px;" d="M7651.9,4497.35c-6.38-63.29-15.56-121.91-27.1-176.28"/>
        <path style="fill: none; stroke: #85dfef; stroke-dasharray: 0 0 0 0 0 0 14.87 99.13 14.87 99.13 14.87 99.13; stroke-linecap: round; stroke-linejoin: round; stroke-width: 14px;" d="M7613.68,4272.77c-74.77-300.12-223.53-461.97-356.78-566.01-232.8-181.78-478.51-180.89-802.44-203.78-280.86-19.85-586.19-56.47-982-198.91-170.46-61.34-327.54-134.42-475.67-209.06-346.83-173.22-600.15-347.88-738.63-442.42-482.57-329.45-625.78-601.63-854.46-841.31-48.39-50.71-99.31-100.99-158.81-149.52-398.28-322.72-1147.18-605.31-2722.87-276.86"/>
        <path style="fill: none; stroke: #85dfef; stroke-linecap: round; stroke-linejoin: round; stroke-width: 14px;" d="M473.51,1395.14c-2.44.52-4.89,1.05-7.34,1.57"/>
      </g>
      <g>
        <path style="fill: none; stroke: #7cdcf0; stroke-linecap: round; stroke-linejoin: round; stroke-width: 14px;" d="M7775.07,4541.22c-.21-2.5-.42-4.99-.64-7.47"/>
        <path style="fill: none; stroke: #7cdcf0; stroke-dasharray: 0 0 0 0 15.05 100.3 15.05 100.3; stroke-linecap: round; stroke-linejoin: round; stroke-width: 14px;" d="M7762.69,4434.14c-9.5-63.86-22.25-122.5-37.65-176.45"/>
        <path style="fill: none; stroke: #7cdcf0; stroke-dasharray: 0 0 0 0 0 0 15.05 100.3 15.05 100.3 15.05 100.3; stroke-linecap: round; stroke-linejoin: round; stroke-width: 14px;" d="M7710.28,4209.77c-86.35-260.57-236.71-404.03-372.19-502.63-233.29-169.8-476.02-174.43-790.19-209.43-282.11-31.42-570.76-84.47-948.22-232.61-163.65-64.22-315.61-139.95-463.67-215.16-338.52-171.98-591.48-331.66-734.83-420.77-475.64-295.68-628.56-547.55-865.97-778.01-49.18-47.74-100.2-96.15-159.76-142.77-399.56-312.72-1130.99-608.44-2622.64-394.68"/>
        <path style="fill: none; stroke: #7cdcf0; stroke-linecap: round; stroke-linejoin: round; stroke-width: 14px;" d="M703.19,1320.96c-2.47.37-4.95.74-7.42,1.11"/>
      </g>
      <g>
        <path style="fill: none; stroke: #72d8f2; stroke-linecap: round; stroke-linejoin: round; stroke-width: 14px;" d="M7890.45,4478.75c-.32-2.49-.64-4.97-.97-7.44"/>
        <path style="fill: none; stroke: #72d8f2; stroke-dasharray: 0 0 0 0 15.27 101.78 15.27 101.78; stroke-linecap: round; stroke-linejoin: round; stroke-width: 14px;" d="M7872.55,4370.97c-13.29-64.28-30.37-122.68-50.44-175.94"/>
        <path style="fill: none; stroke: #72d8f2; stroke-dasharray: 0 0 0 0 0 0 15.27 101.78 15.27 101.78 15.27 101.78; stroke-linecap: round; stroke-linejoin: round; stroke-width: 14px;" d="M7803,4147.88c-96.52-222.04-247.03-347.71-383.7-440.36-233.35-158.19-473.66-168.55-777.94-215.07-283.54-43.35-555.35-112.57-914.44-266.31-156.84-67.14-303.82-145.19-451.67-221.27-330.53-170.08-582.46-315.52-731.03-399.13-467.33-263.01-631.07-493.55-877.48-714.71-49.9-44.79-101.17-91.2-160.72-136.01-401.39-302.02-1114.74-611.44-2522.44-511.91"/>
        <path style="fill: none; stroke: #72d8f2; stroke-linecap: round; stroke-linejoin: round; stroke-width: 14px;" d="M932.83,1246.85c-2.49.19-4.99.38-7.48.58"/>
      </g>
      <g>
        <path style="fill: none; stroke: #69d5f3; stroke-linecap: round; stroke-linejoin: round; stroke-width: 14px;" d="M8005.83,4416.28c-.44-2.47-.9-4.93-1.35-7.38"/>
        <path style="fill: none; stroke: #69d5f3; stroke-dasharray: 0 0 0 0 14.87 99.11 14.87 99.11; stroke-linecap: round; stroke-linejoin: round; stroke-width: 14px;" d="M7982.39,4312.31c-16.82-61.43-37.65-116.87-61.59-167.18"/>
        <path style="fill: none; stroke: #69d5f3; stroke-dasharray: 0 0 0 0 0 0 14.87 99.11 14.87 99.11 14.87 99.11; stroke-linecap: round; stroke-linejoin: round; stroke-width: 14px;" d="M7898.3,4100.98c-105.19-193.18-257.99-304.91-397.81-393.09-233.03-146.97-471.37-163.23-765.69-220.71-285.07-55.67-539.93-140.79-880.66-300-150.04-70.11-292.03-150.42-439.66-227.38-322.56-168.14-573.11-299.53-727.22-377.49-457.75-231.55-633.32-439.68-889-651.41-50.57-41.88-102.15-86.25-161.67-129.26-403.44-291.44-1099.2-614.69-2424.58-628.46"/>
        <path style="fill: none; stroke: #69d5f3; stroke-linecap: round; stroke-linejoin: round; stroke-width: 14px;" d="M1162.44,1172.82c-2.5-.01-5-.02-7.5-.03"/>
      </g>
      <g>
        <path style="fill: none; stroke: #5fd1f4; stroke-linecap: round; stroke-linejoin: round; stroke-width: 14px;" d="M8121.21,4353.82c-.59-2.44-1.2-4.86-1.8-7.28"/>
        <path style="fill: none; stroke: #5fd1f4; stroke-dasharray: 0 0 0 0 15.17 101.1 15.17 101.1; stroke-linecap: round; stroke-linejoin: round; stroke-width: 14px;" d="M8089.96,4249.86c-22.01-60.82-48.68-114.99-78.85-163.66"/>
        <path style="fill: none; stroke: #5fd1f4; stroke-dasharray: 0 0 0 0 0 0 15.17 101.1 15.17 101.1 15.17 101.1; stroke-linecap: round; stroke-linejoin: round; stroke-width: 14px;" d="M7983.19,4044.07c-112.11-158.59-262.47-254.36-401.5-335.8-232.37-136.13-469.09-158.49-753.44-226.36-286.66-68.43-524.51-169.12-846.89-333.7-143.24-73.12-280.26-155.64-427.66-233.48-314.61-166.15-563.43-283.76-723.42-355.84-447.02-201.4-635.31-385.98-900.51-588.11-51.18-39.01-103.13-81.3-162.63-122.5-405.3-280.67-1082.93-617.52-2324.85-744.42"/>
        <path style="fill: none; stroke: #5fd1f4; stroke-linecap: round; stroke-linejoin: round; stroke-width: 14px;" d="M1392,1098.86c-2.49-.24-4.98-.48-7.47-.72"/>
      </g>
      <g>
        <path style="fill: none; stroke: #56cef5; stroke-linecap: round; stroke-linejoin: round; stroke-width: 14px;" d="M8236.59,4291.35c-.77-2.39-1.55-4.76-2.34-7.13"/>
        <path style="fill: none; stroke: #56cef5; stroke-dasharray: 0 0 0 0 14.83 98.87 14.83 98.87; stroke-linecap: round; stroke-linejoin: round; stroke-width: 14px;" d="M8197.75,4192.39c-26.48-56.62-57.84-106.66-92.78-151.44"/>
        <path style="fill: none; stroke: #56cef5; stroke-dasharray: 0 0 0 0 0 0 14.83 98.87 14.83 98.87 14.83 98.87; stroke-linecap: round; stroke-linejoin: round; stroke-width: 14px;" d="M8073.39,4002.94c-118.33-133.97-269.47-217.72-410.49-294.29-231.44-125.66-466.78-154.28-741.19-232-288.23-81.64-509.06-197.59-813.11-367.4-136.43-76.19-268.49-160.83-415.66-239.59-306.69-164.12-553.46-268.31-719.61-334.2-435.32-172.62-637.05-332.49-912.02-524.81-51.74-36.18-104.12-76.33-163.58-115.74-407.44-270.04-1067.54-620.71-2227.81-860.06"/>
        <path style="fill: none; stroke: #56cef5; stroke-linecap: round; stroke-linejoin: round; stroke-width: 14px;" d="M1621.47,1024.98c-2.45-.49-4.9-.99-7.36-1.48"/>
      </g>
      <g>
        <path style="fill: none; stroke: #4ccaf6; stroke-linecap: round; stroke-linejoin: round; stroke-width: 14px;" d="M8351.97,4228.88c-.98-2.31-1.97-4.6-2.97-6.89"/>
        <path style="fill: none; stroke: #4ccaf6; stroke-dasharray: 0 0 0 0 15.24 101.59 15.24 101.59; stroke-linecap: round; stroke-linejoin: round; stroke-width: 14px;" d="M8302.08,4131.97c-33.04-53.84-71.58-100.75-113.98-142.41"/>
        <path style="fill: none; stroke: #4ccaf6; stroke-dasharray: 0 0 0 0 0 0 15.24 101.59 15.24 101.59 15.24 101.59; stroke-linecap: round; stroke-linejoin: round; stroke-width: 14px;" d="M8150.82,3955.06c-121.5-106.03-268.27-176.54-406.73-246.03-230.27-115.57-464.36-150.58-728.94-237.65-289.72-95.34-493.57-226.2-779.33-401.1-129.6-79.32-256.73-166.01-403.66-245.7-298.79-162.05-543.23-253.28-715.81-312.55-422.83-145.23-638.57-279.26-923.53-461.51-52.25-33.41-105.12-71.36-164.54-108.99-409.38-259.21-1051.44-623.44-2129.11-974.73"/>
        <path style="fill: none; stroke: #4ccaf6; stroke-linecap: round; stroke-linejoin: round; stroke-width: 14px;" d="M1850.85,951.15c-2.38-.77-4.76-1.53-7.14-2.3"/>
      </g>
      <g>
        <path style="fill: none; stroke: #43c7f7; stroke-linecap: round; stroke-linejoin: round; stroke-width: 14px;" d="M8467.35,4166.42c-1.22-2.19-2.46-4.36-3.7-6.52"/>
        <path style="fill: none; stroke: #43c7f7; stroke-dasharray: 0 0 0 0 14.99 99.96 14.99 99.96; stroke-linecap: round; stroke-linejoin: round; stroke-width: 14px;" d="M8407.41,4077.36c-37.94-47.49-81.39-88.62-128.62-125.21"/>
        <path style="fill: none; stroke: #43c7f7; stroke-dasharray: 0 0 0 0 0 0 14.99 99.96 14.99 99.96 14.99 99.96; stroke-linecap: round; stroke-linejoin: round; stroke-width: 14px;" d="M8238.48,3922.6c-125.72-87.38-273.01-148.39-413.19-213.19-228.94-105.84-461.8-147.35-716.69-243.29-291.05-109.55-478.02-254.96-745.55-434.8-122.75-82.52-244.98-171.16-391.66-251.8-290.91-159.93-532.77-238.75-712.01-290.91-409.76-119.24-639.89-226.33-935.04-398.21-52.72-30.7-106.12-66.38-165.49-102.23-411.68-248.56-1036.43-626.73-2033.39-1089.8"/>
        <path style="fill: none; stroke: #43c7f7; stroke-linecap: round; stroke-linejoin: round; stroke-width: 14px;" d="M2080.11,877.36c-2.27-1.05-4.54-2.1-6.81-3.14"/>
      </g>
      <g>
        <path style="fill: none; stroke: #39c3f8; stroke-linecap: round; stroke-linejoin: round; stroke-width: 14px;" d="M8582.73,4103.95c-1.5-2.01-3-4-4.52-5.98"/>
        <path style="fill: none; stroke: #39c3f8; stroke-dasharray: 0 0 0 0 14.81 98.73 14.81 98.73; stroke-linecap: round; stroke-linejoin: round; stroke-width: 14px;" d="M8512.07,4024.8c-42.56-40.3-90.48-75.1-142.03-106.24"/>
        <path style="fill: none; stroke: #39c3f8; stroke-dasharray: 0 0 0 0 0 0 14.81 98.73 14.81 98.73 14.81 98.73; stroke-linecap: round; stroke-linejoin: round; stroke-width: 14px;" d="M8327.25,3893.94c-129.79-71.2-278.27-123.74-420.76-184.16-227.47-96.45-459.04-144.54-704.44-248.94-292.14-124.28-462.39-283.87-711.77-468.5-115.86-85.78-233.24-176.3-379.66-257.91-283.05-157.77-522.15-224.85-708.2-269.27-396.32-94.61-641.03-173.75-946.55-334.9-53.17-28.05-107.13-61.4-166.45-95.47-414.11-237.9-1021.69-630.16-1938.36-1205.01"/>
        <path style="fill: none; stroke: #39c3f8; stroke-linecap: round; stroke-linejoin: round; stroke-width: 14px;" d="M2309.24,803.55c-2.12-1.33-4.24-2.66-6.36-3.98"/>
      </g>
      <g>
        <path style="fill: none; stroke: #30c0f9; stroke-linecap: round; stroke-linejoin: round; stroke-width: 14px;" d="M8698.11,4041.48c-1.79-1.75-3.58-3.48-5.4-5.21"/>
        <path style="fill: none; stroke: #30c0f9; stroke-dasharray: 0 0 0 0 14.69 97.91 14.69 97.91; stroke-linecap: round; stroke-linejoin: round; stroke-width: 14px;" d="M8616.77,3974.61c-46.66-32.56-98.37-60.68-153.49-86.15"/>
        <path style="fill: none; stroke: #30c0f9; stroke-dasharray: 0 0 0 0 0 0 14.69 97.91 14.69 97.91 14.69 97.91; stroke-linecap: round; stroke-linejoin: round; stroke-width: 14px;" d="M8418.51,3868.64c-134.2-57.1-285-102.06-430.82-158.48-225.93-87.4-456.04-142.1-692.19-254.58-292.91-139.53-446.64-312.92-677.99-502.2-108.92-89.11-221.52-181.41-367.66-264.02-275.22-155.57-511.44-211.68-704.4-247.62-382.76-71.3-642.04-121.53-958.06-271.6-53.6-25.45-108.14-56.4-167.4-88.72-416.66-227.23-1007.21-633.76-1843.91-1320.63"/>
        <path style="fill: none; stroke: #30c0f9; stroke-linecap: round; stroke-linejoin: round; stroke-width: 14px;" d="M2538.26,729.7c-1.93-1.59-3.86-3.18-5.79-4.77"/>
      </g>
      <g>
        <path style="fill: none; stroke: #26bcfb; stroke-linecap: round; stroke-linejoin: round; stroke-width: 14px;" d="M8813.49,3979.02c-2.06-1.4-4.14-2.79-6.23-4.17"/>
        <path style="fill: none; stroke: #26bcfb; stroke-dasharray: 0 0 0 0 15.36 102.41 15.36 102.41; stroke-linecap: round; stroke-linejoin: round; stroke-width: 14px;" d="M8718.11,3924.59c-52.63-25.5-110.29-47.49-171.27-67.85"/>
        <path style="fill: none; stroke: #26bcfb; stroke-dasharray: 0 0 0 0 0 0 15.36 102.41 15.36 102.41 15.36 102.41; stroke-linecap: round; stroke-linejoin: round; stroke-width: 14px;" d="M8498.11,3840.99c-135.35-42.44-284.16-79.59-429.23-130.45-224.35-78.66-452.77-139.96-679.94-260.22-293.3-155.28-430.75-342.12-644.21-535.9-101.9-92.51-209.81-186.5-355.66-270.12-267.41-153.33-500.72-199.34-700.59-225.98-369.32-49.21-642.96-69.72-969.58-208.3-54.01-22.92-109.16-51.39-168.36-81.96-419.01-216.36-992.12-636.91-1748.2-1435.05"/>
        <path style="fill: none; stroke: #26bcfb; stroke-linecap: round; stroke-linejoin: round; stroke-width: 14px;" d="M2767.2,655.75c-1.71-1.82-3.43-3.64-5.14-5.47"/>
      </g>
      <g>
        <path style="fill: none; stroke: #1cb9fc; stroke-linecap: round; stroke-linejoin: round; stroke-width: 14px;" d="M8928.87,3916.55c-2.29-.98-4.59-1.95-6.91-2.92"/>
        <path style="fill: none; stroke: #1cb9fc; stroke-dasharray: 0 0 0 0 15.37 102.46 15.37 102.46; stroke-linecap: round; stroke-linejoin: round; stroke-width: 14px;" d="M8825.54,3879.08c-55.42-17.25-115.37-32.31-178.35-46.82"/>
        <path style="fill: none; stroke: #1cb9fc; stroke-dasharray: 0 0 0 0 0 0 15.37 102.46 15.37 102.46 15.37 102.46; stroke-linecap: round; stroke-linejoin: round; stroke-width: 14px;" d="M8597.22,3820.97c-141.51-31.46-295.78-62.34-447.14-110.05-222.77-70.22-449.18-138.07-667.68-265.87-293.24-171.52-414.69-371.44-610.43-569.6-94.81-95.97-198.11-191.56-343.66-276.23-259.63-151.05-490.11-187.94-696.79-204.33-356.26-28.25-643.82-18.33-981.09-145-54.42-20.44-110.17-46.37-169.31-75.2-421.79-205.63-978.1-640.86-1654.59-1551.78"/>
        <path style="fill: none; stroke: #1cb9fc; stroke-linecap: round; stroke-linejoin: round; stroke-width: 14px;" d="M2996.09,581.69c-1.48-2.01-2.96-4.03-4.44-6.05"/>
      </g>
      <g>
        <path style="fill: none; stroke: #13b5fd; stroke-linecap: round; stroke-linejoin: round; stroke-width: 14px;" d="M9044.25,3854.08c-2.44-.52-4.88-1.03-7.34-1.54"/>
        <path style="fill: none; stroke: #13b5fd; stroke-dasharray: 0 0 0 0 14.71 98.03 14.71 98.03; stroke-linecap: round; stroke-linejoin: round; stroke-width: 14px;" d="M8940.47,3835c-54.89-8.85-113.48-16.82-174.67-25.1"/>
        <path style="fill: none; stroke: #13b5fd; stroke-dasharray: 0 0 0 0 0 0 14.71 98.03 14.71 98.03 14.71 98.03; stroke-linecap: round; stroke-linejoin: round; stroke-width: 14px;" d="M8717.23,3803.31c-153.44-20.95-320.82-45.7-485.95-92.01-221.24-62.06-445.27-136.36-655.44-271.51-292.66-188.21-398.41-400.86-576.65-603.3-87.6-99.49-186.44-196.59-331.66-282.34-251.87-148.73-479.73-177.56-692.99-182.69-343.82-8.28-644.68,32.63-992.6-81.7-54.84-18.02-111.2-41.35-170.26-68.45-424.93-194.96-964.92-645.57-1562.17-1671.37"/>
        <path style="fill: none; stroke: #13b5fd; stroke-linecap: round; stroke-linejoin: round; stroke-width: 14px;" d="M3224.97,507.51c-1.25-2.17-2.49-4.34-3.74-6.51"/>
      </g>
      <g>
        <path style="fill: none; stroke: #0ab2fe; stroke-linecap: round; stroke-linejoin: round; stroke-width: 14px;" d="M9159.63,3791.62c-2.49-.07-4.99-.14-7.5-.21"/>
        <path style="fill: none; stroke: #0ab2fe; stroke-dasharray: 0 0 0 0 14.83 98.9 14.83 98.9; stroke-linecap: round; stroke-linejoin: round; stroke-width: 14px;" d="M9053.27,3789.03c-56.41-1.32-116.01-2.84-177.92-5.51"/>
        <path style="fill: none; stroke: #0ab2fe; stroke-dasharray: 0 0 0 0 0 0 14.83 98.9 14.83 98.9 14.83 98.9; stroke-linecap: round; stroke-linejoin: round; stroke-width: 14px;" d="M8825.96,3781.15c-162.43-8.59-338.62-26.4-513.47-69.48-219.79-54.15-441.01-134.77-643.18-277.16-291.52-205.3-381.9-430.34-542.88-637-80.27-103.05-174.89-201.41-319.65-288.44-244.33-146.06-469.7-168.22-689.18-161.05-332.25,10.87-645.57,83.17-1004.11-18.4-55.28-15.66-112.25-36.24-171.22-61.69-428.04-183.56-950.96-649.73-1468.08-1789.63"/>
        <path style="fill: none; stroke: #0ab2fe; stroke-linecap: round; stroke-linejoin: round; stroke-width: 14px;" d="M3453.88,433.21c-1.02-2.28-2.04-4.57-3.06-6.85"/>
      </g>
      <g>
        <path style="fill: none; stroke: #00aeff; stroke-linecap: round; stroke-linejoin: round; stroke-width: 14px;" d="M9275.01,3729.15c-2.47.33-4.95.66-7.43.98"/>
        <path style="fill: none; stroke: #00aeff; stroke-dasharray: 0 0 0 0 15.02 100.12 15.02 100.12; stroke-linecap: round; stroke-linejoin: round; stroke-width: 14px;" d="M9168.14,3741.78c-57.42,5.9-117.55,10.61-179.7,13.45"/>
        <path style="fill: none; stroke: #00aeff; stroke-dasharray: 0 0 0 0 0 0 15.02 100.12 15.02 100.12 15.02 100.12; stroke-linecap: round; stroke-linejoin: round; stroke-width: 14px;" d="M8938.41,3757.08c-375.42,10.68-815.57-51.03-1175.66-327.83-436.33-335.4-386.49-703.27-816.75-965.25-574.29-349.69-1073.61,55.72-1701-94.5-463.09-110.88-1049.39-537.28-1545.85-1963.35"/>
        <path style="fill: none; stroke: #00aeff; stroke-linecap: round; stroke-linejoin: round; stroke-width: 14px;" d="M3682.83,358.81c-.81-2.36-1.61-4.73-2.42-7.1"/>
      </g>
      <g>
        <path style="fill: none; stroke: #0ab2fe; stroke-linecap: round; stroke-linejoin: round; stroke-width: 14px;" d="M3815.32,330.17c.71,2.4,1.42,4.8,2.13,7.19"/>
        <path style="fill: none; stroke: #0ab2fe; stroke-dasharray: 0 0 0 0 15.02 100.12 15.02 100.12; stroke-linecap: round; stroke-linejoin: round; stroke-width: 14px;" d="M3846.53,433.17c18.26,58.84,36.75,115.98,55.47,171.46"/>
        <path style="fill: none; stroke: #0ab2fe; stroke-dasharray: 0 0 0 0 0 0 15.02 100.12 15.02 100.12 15.02 100.12; stroke-linecap: round; stroke-linejoin: round; stroke-width: 14px;" d="M3918.18,652c183.12,529.72,387.5,904.37,604.86,1162.64,252.65,300.2,511.6,439.24,743.05,498.33,379.62,97.93,713.67-26.57,1073.23-60.79,223.03-21.22,446.44-5.38,678.8,121.92,162.09,88.8,263.94,192.27,343.69,309.86,141.95,208.92,205.4,451.08,463.57,680.11,85.8,76.11,177.42,139.83,278.29,189.35,202.86,99.16,428.48,138.2,633.97,146.06,209.08,8,398.11-23.33,555.58-48.82"/>
        <path style="fill: none; stroke: #0ab2fe; stroke-linecap: round; stroke-linejoin: round; stroke-width: 14px;" d="M9342.64,3642.75c2.48-.39,4.95-.78,7.41-1.16"/>
      </g>
      <g>
        <path style="fill: none; stroke: #13b5fd; stroke-linecap: round; stroke-linejoin: round; stroke-width: 14px;" d="M3950.23,308.62c.6,2.43,1.2,4.86,1.8,7.28"/>
        <path style="fill: none; stroke: #13b5fd; stroke-dasharray: 0 0 0 0 15.04 100.27 15.04 100.27; stroke-linecap: round; stroke-linejoin: round; stroke-width: 14px;" d="M3976.76,413.09c15.6,59.69,31.55,117.69,47.84,174.04"/>
        <path style="fill: none; stroke: #13b5fd; stroke-dasharray: 0 0 0 0 0 0 15.04 100.27 15.04 100.27 15.04 100.27; stroke-linecap: round; stroke-linejoin: round; stroke-width: 14px;" d="M4038.71,635.23c148.74,499.67,325.68,865.67,530.67,1121.9,236.19,295.24,488.89,436.58,717.81,499.31,379.55,104,714.44-31.09,1102.48-74.28,230.41-25.65,462.57-14.77,700.59,102.06,168.92,82.91,279.71,181.48,363.54,300.94,150.07,213.15,196.63,470.57,434.22,713.76,80.38,82.28,167.2,153.19,269.78,207.39,205.34,107.71,445.07,148.96,652.1,141.87,220.27-7.55,408.24-52.86,558.61-83.22"/>
        <path style="fill: none; stroke: #13b5fd; stroke-linecap: round; stroke-linejoin: round; stroke-width: 14px;" d="M9417.71,3555.37c2.47-.46,4.93-.91,7.37-1.36"/>
      </g>
      <g>
        <path style="fill: none; stroke: #1cb9fc; stroke-linecap: round; stroke-linejoin: round; stroke-width: 14px;" d="M4085.15,287.08c.47,2.46.95,4.91,1.42,7.37"/>
        <path style="fill: none; stroke: #1cb9fc; stroke-dasharray: 0 0 0 0 15.09 100.59 15.09 100.59; stroke-linecap: round; stroke-linejoin: round; stroke-width: 14px;" d="M4106.33,393.07c12.57,60.57,25.63,119.48,39.19,176.76"/>
        <path style="fill: none; stroke: #1cb9fc; stroke-dasharray: 0 0 0 0 0 0 15.09 100.59 15.09 100.59 15.09 100.59; stroke-linecap: round; stroke-linejoin: round; stroke-width: 14px;" d="M4157.3,618.73c115.48,470.09,265.85,826.9,458.4,1080.89,219.88,290.04,466.11,434.26,692.58,500.29,379.36,110.6,715.2-35.39,1131.74-87.78,237.79-29.91,478.89-24.32,722.37,82.2,175.86,76.93,295.47,170.69,383.39,292.02,158.18,217.38,187.74,490.66,404.88,747.4,74.96,88.63,156.87,166.75,261.26,225.43,207.58,116.67,461.52,144.57,670.24,137.68,231.67-7.64,418.41-78.4,561.81-116.78"/>
        <path style="fill: none; stroke: #1cb9fc; stroke-linecap: round; stroke-linejoin: round; stroke-width: 14px;" d="M9492.79,3468.04c2.46-.54,4.9-1.07,7.33-1.58"/>
      </g>
      <g>
        <path style="fill: none; stroke: #26bcfb; stroke-linecap: round; stroke-linejoin: round; stroke-width: 14px;" d="M4220.06,265.53c.33,2.48.66,4.96.99,7.44"/>
        <path style="fill: none; stroke: #26bcfb; stroke-dasharray: 0 0 0 0 15.16 101.07 15.16 101.07; stroke-linecap: round; stroke-linejoin: round; stroke-width: 14px;" d="M4235.12,373.06c9.11,61.43,18.88,121.28,29.34,179.54"/>
        <path style="fill: none; stroke: #26bcfb; stroke-dasharray: 0 0 0 0 0 0 15.16 101.07 15.16 101.07 15.16 101.07; stroke-linecap: round; stroke-linejoin: round; stroke-width: 14px;" d="M4273.63,602.29c83.51,441.13,208.35,788.28,388.41,1039.82,203.73,284.6,443.31,431.97,667.34,501.26,379.16,117.28,715.98-39.49,1160.99-101.28,245.19-34.04,495.34-34.04,744.15,62.33,182.91,70.85,311.24,159.9,403.24,283.1,166.3,221.6,178.61,511.33,375.53,781.05,69.48,95.17,146.63,180.15,252.75,243.47,210,125.3,478.13,147.17,688.37,133.5,242.75-15.79,428.42-105.29,565.05-150.37"/>
        <path style="fill: none; stroke: #26bcfb; stroke-linecap: round; stroke-linejoin: round; stroke-width: 14px;" d="M9567.88,3380.72c2.44-.63,4.87-1.24,7.27-1.83"/>
      </g>
      <g>
        <path style="fill: none; stroke: #30c0f9; stroke-linecap: round; stroke-linejoin: round; stroke-width: 14px;" d="M4354.97,243.99c.16,2.5.33,4.99.49,7.49"/>
        <path style="fill: none; stroke: #30c0f9; stroke-dasharray: 0 0 0 0 15.26 101.72 15.26 101.72; stroke-linecap: round; stroke-linejoin: round; stroke-width: 14px;" d="M4363,352.91c5.15,62.21,11.17,122.95,18.12,182.19"/>
        <path style="fill: none; stroke: #30c0f9; stroke-dasharray: 0 0 0 0 0 0 15.26 101.72 15.26 101.72 15.26 101.72; stroke-linecap: round; stroke-linejoin: round; stroke-width: 14px;" d="M4387.32,585.57c53.02,413.03,153.48,750.12,321.04,999.03,187.77,278.92,420.51,429.73,642.1,502.24,378.95,124.01,716.77-43.42,1190.24-114.78,252.59-38.07,511.92-43.94,765.94,42.47,190.04,64.64,327.01,149.11,423.09,274.18,174.41,225.83,169.15,532.5,346.19,814.7,63.91,101.87,136.39,193.53,244.24,261.51,212.44,133.9,494.76,149.46,706.51,129.31,253.65-24.14,438.36-131.74,568.45-183.7"/>
        <path style="fill: none; stroke: #30c0f9; stroke-linecap: round; stroke-linejoin: round; stroke-width: 14px;" d="M9642.99,3293.42c2.42-.73,4.82-1.44,7.2-2.1"/>
      </g>
      <g>
        <path style="fill: none; stroke: #39c3f8; stroke-linecap: round; stroke-linejoin: round; stroke-width: 14px;" d="M4489.88,222.45c-.03,2.5-.05,5-.07,7.5"/>
        <path style="fill: none; stroke: #39c3f8; stroke-dasharray: 0 0 0 0 14.68 97.86 14.68 97.86; stroke-linecap: round; stroke-linejoin: round; stroke-width: 14px;" d="M4489.79,327.81c.54,59.89,2.11,118.61,4.8,176.08"/>
        <path style="fill: none; stroke: #39c3f8; stroke-dasharray: 0 0 0 0 0 0 14.68 97.86 14.68 97.86 14.68 97.86; stroke-linecap: round; stroke-linejoin: round; stroke-width: 14px;" d="M4497.16,552.75c23.03,392.74,100.38,724.94,257.54,974.35,172.02,273,397.7,427.52,616.87,503.22,378.73,130.81,717.59-47.19,1219.49-128.27,260.01-42.01,528.59-54.02,787.72,22.6,197.23,58.32,342.78,138.32,442.94,265.25,182.53,230.06,159.29,554.07,316.85,848.34,58.21,108.72,126.16,206.9,235.72,279.55,214.88,142.47,511.38,151.47,724.64,125.12,265.85-32.85,450.33-159.17,574.12-217.75"/>
        <path style="fill: none; stroke: #39c3f8; stroke-linecap: round; stroke-linejoin: round; stroke-width: 14px;" d="M9718.12,3206.16c2.39-.85,4.76-1.65,7.1-2.41"/>
      </g>
      <g>
        <path style="fill: none; stroke: #43c7f7; stroke-linecap: round; stroke-linejoin: round; stroke-width: 14px;" d="M4624.79,200.9c-.24,2.49-.48,4.98-.71,7.47"/>
        <path style="fill: none; stroke: #43c7f7; stroke-dasharray: 0 0 0 0 14.82 98.8 14.82 98.8; stroke-linecap: round; stroke-linejoin: round; stroke-width: 14px;" d="M4615.87,306.83c-4.36,60.19-7.39,119.43-8.98,177.6"/>
        <path style="fill: none; stroke: #43c7f7; stroke-dasharray: 0 0 0 0 0 0 14.82 98.8 14.82 98.8 14.82 98.8; stroke-linecap: round; stroke-linejoin: round; stroke-width: 14px;" d="M4605.89,533.82c-4.82,366.88,50.36,688.93,195.14,935.76,156.52,266.85,374.88,425.36,591.63,504.2,378.49,137.67,718.43-50.82,1248.74-141.77,267.44-45.87,545.32-64.27,809.5,2.74,204.47,51.86,358.54,127.52,462.79,256.33,190.64,234.29,148.98,575.95,287.5,881.99,52.35,115.67,115.93,220.27,227.21,297.59,217.34,151.02,527.97,153.25,742.78,120.93,276.46-41.59,460.26-185.01,577.88-250.69"/>
        <path style="fill: none; stroke: #43c7f7; stroke-linecap: round; stroke-linejoin: round; stroke-width: 14px;" d="M9793.28,3118.94c2.36-.97,4.68-1.89,6.97-2.75"/>
      </g>
      <g>
        <path style="fill: none; stroke: #4ccaf6; stroke-linecap: round; stroke-linejoin: round; stroke-width: 14px;" d="M4759.71,179.36c-.47,2.46-.95,4.91-1.42,7.37"/>
        <path style="fill: none; stroke: #4ccaf6; stroke-dasharray: 0 0 0 0 14.99 99.91 14.99 99.91; stroke-linecap: round; stroke-linejoin: round; stroke-width: 14px;" d="M4740.82,285.09c-9.84,60.09-18,119.54-24.33,178.17"/>
        <path style="fill: none; stroke: #4ccaf6; stroke-dasharray: 0 0 0 0 0 0 14.99 99.91 14.99 99.91 14.99 99.91; stroke-linecap: round; stroke-linejoin: round; stroke-width: 14px;" d="M4711.55,512.96c-31.06,342.62,3.25,654.74,135.8,899.11,141.29,260.47,352.05,423.23,566.39,505.18,378.23,144.6,719.3-54.31,1277.99-155.27,274.89-49.68,562.09-74.68,831.29-17.12,211.75,45.28,374.31,116.73,482.64,247.41,198.76,238.52,138.23,598.02,258.16,915.63,46.33,122.7,105.71,233.62,218.7,315.63,219.81,159.56,544.53,154.84,760.92,116.75,286.9-50.5,470.21-210.5,581.9-283.4"/>
        <path style="fill: none; stroke: #4ccaf6; stroke-linecap: round; stroke-linejoin: round; stroke-width: 14px;" d="M9868.47,3031.75c2.31-1.11,4.59-2.16,6.81-3.12"/>
      </g>
      <g>
        <path style="fill: none; stroke: #56cef5; stroke-linecap: round; stroke-linejoin: round; stroke-width: 14px;" d="M4894.62,157.81c-.73,2.39-1.46,4.78-2.18,7.18"/>
        <path style="fill: none; stroke: #56cef5; stroke-dasharray: 0 0 0 0 15.18 101.19 15.18 101.19; stroke-linecap: round; stroke-linejoin: round; stroke-width: 14px;" d="M4864.72,262.3c-15.86,59.46-29.65,118.68-41.15,177.39"/>
        <path style="fill: none; stroke: #56cef5; stroke-dasharray: 0 0 0 0 0 0 15.18 101.19 15.18 101.19 15.18 101.19; stroke-linecap: round; stroke-linejoin: round; stroke-width: 14px;" d="M4814.36,489.44c-55.87,320.19-41.21,622.93,79.33,865.13,126.35,253.89,329.2,421.14,541.16,506.15,377.94,151.59,720.2-57.68,1307.24-168.77,282.34-53.43,578.89-85.26,853.07-36.99,219.04,38.56,390.08,105.94,502.49,238.49,206.87,242.74,127.05,620.17,228.81,949.28,40.12,129.76,95.5,246.96,210.19,333.67,222.3,168.07,561.04,156.25,779.05,112.56,297.19-59.56,480.24-235.71,586.21-315.92"/>
        <path style="fill: none; stroke: #56cef5; stroke-linecap: round; stroke-linejoin: round; stroke-width: 14px;" d="M9943.71,2944.6c2.25-1.27,4.46-2.45,6.61-3.54"/>
      </g>
      <g>
        <path style="fill: none; stroke: #5fd1f4; stroke-linecap: round; stroke-linejoin: round; stroke-width: 14px;" d="M5029.53,136.27c-1,2.29-1.99,4.59-2.99,6.88"/>
        <path style="fill: none; stroke: #5fd1f4; stroke-dasharray: 0 0 0 0 14.73 98.17 14.73 98.17; stroke-linecap: round; stroke-linejoin: round; stroke-width: 14px;" d="M4989.38,234c-21.45,55.58-40.61,111.39-57.27,167.12"/>
        <path style="fill: none; stroke: #5fd1f4; stroke-dasharray: 0 0 0 0 0 0 14.73 98.17 14.73 98.17 14.73 98.17; stroke-linecap: round; stroke-linejoin: round; stroke-width: 14px;" d="M4918.62,448.31c-83.25,304.65-89.1,604.39,21.4,848.74,111.75,247.12,306.34,419.08,515.92,507.13,377.63,158.65,721.12-60.94,1336.49-182.26,289.81-57.14,595.68-95.98,874.85-56.85,226.33,31.73,405.85,95.15,522.34,229.57,214.99,246.97,115.46,642.33,199.47,982.93,33.75,136.83,85.3,260.3,201.67,351.71,224.8,176.58,577.49,157.53,797.19,108.37,309.12-69.16,492.44-262.89,592.54-349.76"/>
        <path style="fill: none; stroke: #5fd1f4; stroke-linecap: round; stroke-linejoin: round; stroke-width: 14px;" d="M10019,2857.48c2.18-1.44,4.29-2.77,6.35-3.99"/>
      </g>
      <g>
        <path style="fill: none; stroke: #69d5f3; stroke-linecap: round; stroke-linejoin: round; stroke-width: 14px;" d="M5164.44,114.72c-1.27,2.15-2.53,4.31-3.8,6.47"/>
        <path style="fill: none; stroke: #69d5f3; stroke-dasharray: 0 0 0 0 14.96 99.72 14.96 99.72; stroke-linecap: round; stroke-linejoin: round; stroke-width: 14px;" d="M5112.43,208.47c-27.94,53.64-53.2,108.04-75.48,162.79"/>
        <path style="fill: none; stroke: #69d5f3; stroke-dasharray: 0 0 0 0 0 0 14.96 99.72 14.96 99.72 14.96 99.72; stroke-linecap: round; stroke-linejoin: round; stroke-width: 14px;" d="M5018.8,417.71c-107.05,285.76-131.34,578.2-32.45,821.84,97.5,240.21,283.46,417.06,490.68,508.11,377.28,165.77,722.07-64.1,1365.74-195.76,297.29-60.81,612.47-106.84,896.64-76.72,233.62,24.77,421.61,84.36,542.19,220.65,223.1,251.2,103.52,664.43,170.12,1016.57,27.21,143.89,75.28,273.41,193.16,369.75,227.65,184.66,593.89,158.68,815.32,104.19,319.36-78.59,502.77-288.02,597.45-382.21"/>
        <path style="fill: none; stroke: #69d5f3; stroke-linecap: round; stroke-linejoin: round; stroke-width: 14px;" d="M10094.37,2770.39c2.08-1.63,4.08-3.12,6.02-4.47"/>
      </g>
      <g>
        <path style="fill: none; stroke: #72d8f2; stroke-linecap: round; stroke-linejoin: round; stroke-width: 14px;" d="M5299.35,93.18c-1.53,1.98-3.05,3.96-4.57,5.94"/>
        <path style="fill: none; stroke: #72d8f2; stroke-dasharray: 0 0 0 0 15.22 101.45 15.22 101.45; stroke-linecap: round; stroke-linejoin: round; stroke-width: 14px;" d="M5235.43,181.39c-34.56,50.98-66.02,103.28-94.07,156.42"/>
        <path style="fill: none; stroke: #72d8f2; stroke-dasharray: 0 0 0 0 0 0 15.22 101.45 15.22 101.45 15.22 101.45; stroke-linecap: round; stroke-linejoin: round; stroke-width: 14px;" d="M5118.42,383.05c-130.78,268.67-173.18,555.13-85.74,798.98,83.62,233.19,260.56,415.07,465.45,509.09,376.9,172.95,723.05-67.17,1395-209.26,304.78-64.45,629.22-117.83,918.42-96.58,240.89,17.7,437.38,73.57,562.04,211.72,231.22,255.43,91.27,686.41,140.78,1050.22,20.53,150.9,65.06,286.77,184.65,387.79,230.12,193.21,610.22,159.73,833.46,100,329.6-88.19,513.3-313.16,602.68-414.65"/>
        <path style="fill: none; stroke: #72d8f2; stroke-linecap: round; stroke-linejoin: round; stroke-width: 14px;" d="M10169.81,2683.33c1.96-1.82,3.83-3.48,5.61-4.97"/>
      </g>
      <g>
        <path style="fill: none; stroke: #7cdcf0; stroke-linecap: round; stroke-linejoin: round; stroke-width: 14px;" d="M5434.26,71.63c-1.77,1.77-3.53,3.55-5.28,5.33"/>
        <path style="fill: none; stroke: #7cdcf0; stroke-dasharray: 0 0 0 0 14.86 99.04 14.86 99.04; stroke-linecap: round; stroke-linejoin: round; stroke-width: 14px;" d="M5361.7,149.62c-39.48,45.47-75.79,92.71-108.62,141.23"/>
        <path style="fill: none; stroke: #7cdcf0; stroke-dasharray: 0 0 0 0 0 0 14.86 99.04 14.86 99.04 14.86 99.04; stroke-linecap: round; stroke-linejoin: round; stroke-width: 14px;" d="M5226.06,332.33c-160.53,256.16-224.28,543.19-147.05,792.19,70.14,226.13,237.64,413.11,440.21,510.07,376.48,180.19,724.05-70.16,1424.25-222.76,312.28-68.06,645.94-128.92,940.21-116.44,248.13,10.52,453.15,62.78,581.89,202.8,239.33,259.66,78.77,708.23,111.44,1083.86,13.73,157.86,54.85,300.13,176.13,405.83,232.6,201.76,626.49,160.69,851.59,95.81,341.67-98.48,525.99-340.96,609.57-448.85"/>
        <path style="fill: none; stroke: #7cdcf0; stroke-linecap: round; stroke-linejoin: round; stroke-width: 14px;" d="M10245.34,2596.27c1.81-2.02,3.51-3.85,5.12-5.48"/>
      </g>
      <g>
        <path style="fill: none; stroke: #85dfef; stroke-linecap: round; stroke-linejoin: round; stroke-width: 14px;" d="M5569.18,50.09c-1.97,1.54-3.93,3.09-5.89,4.65"/>
        <path style="fill: none; stroke: #85dfef; stroke-dasharray: 0 0 0 0 15.15 101.01 15.15 101.01; stroke-linecap: round; stroke-linejoin: round; stroke-width: 14px;" d="M5486.42,120.24c-45.47,41.62-87.49,85.53-125.71,131.2"/>
        <path style="fill: none; stroke: #85dfef; stroke-dasharray: 0 0 0 0 0 0 15.15 101.01 15.15 101.01 15.15 101.01; stroke-linecap: round; stroke-linejoin: round; stroke-width: 14px;" d="M5329.04,290.78c-186.42,241.06-269.18,524.86-203.7,776.24,57.07,219.08,214.7,411.18,414.97,511.04,376.02,187.5,725.08-73.06,1453.5-236.25,319.79-71.65,662.62-140.11,961.99-136.31,255.34,3.24,468.92,51.99,601.74,193.88,247.44,263.88,66.05,729.88,82.09,1117.51,6.82,164.76,44.63,313.49,167.62,423.87,235.08,210.31,642.71,161.58,869.73,91.62,352.09-108.5,536.99-366.58,615.34-481.57"/>
        <path style="fill: none; stroke: #85dfef; stroke-linecap: round; stroke-linejoin: round; stroke-width: 14px;" d="M10320.96,2509.2c1.62-2.22,3.13-4.21,4.53-5.97"/>
      </g>
      <g>
        <path style="fill: none; stroke: #8fe3ee; stroke-linecap: round; stroke-linejoin: round; stroke-width: 14px;" d="M5704.09,28.54c-2.13,1.31-4.26,2.62-6.38,3.94"/>
        <path style="fill: none; stroke: #8fe3ee; stroke-dasharray: 0 0 0 0 14.85 99.01 14.85 99.01; stroke-linecap: round; stroke-linejoin: round; stroke-width: 14px;" d="M5615.55,87.71c-49.07,35.63-94.76,73.82-136.77,114.07"/>
        <path style="fill: none; stroke: #8fe3ee; stroke-dasharray: 0 0 0 0 0 0 14.85 99.01 14.85 99.01 14.85 99.01; stroke-linecap: round; stroke-linejoin: round; stroke-width: 14px;" d="M5443.71,236.72c-220,228.17-326.13,514.4-272.04,772.78,44.41,212.13,191.61,409.52,389.74,512.02,375.27,195.33,726.32-75.11,1482.75-249.75,327.39-74.87,679.24-151.39,983.77-156.17,262.51-4.13,484.68,41.2,621.59,184.96,255.56,268.11,53.17,751.35,52.75,1151.16-.18,171.59,34.42,326.84,159.11,441.91,237.56,218.86,658.86,162.41,887.86,87.44,364.38-119.29,550.04-395.15,622.43-516.24"/>
        <path style="fill: none; stroke: #8fe3ee; stroke-linecap: round; stroke-linejoin: round; stroke-width: 14px;" d="M10396.67,2422.09c1.41-2.4,2.69-4.54,3.85-6.43"/>
      </g>
      <g>
        <path style="fill: none; stroke: #98e6ed; stroke-linecap: round; stroke-linejoin: round; stroke-width: 14px;" d="M5839,7c-2.26,1.08-4.51,2.16-6.76,3.25"/>
        <path style="fill: none; stroke: #98e6ed; stroke-dasharray: 0 0 0 0 15.18 101.19 15.18 101.19; stroke-linecap: round; stroke-linejoin: round; stroke-width: 14px;" d="M5742.83,57.6c-53.91,31.18-104.27,65.31-150.82,101.88"/>
        <path style="fill: none; stroke: #98e6ed; stroke-dasharray: 0 0 0 0 0 0 15.18 101.19 15.18 101.19 15.18 101.19; stroke-linecap: round; stroke-linejoin: round; stroke-width: 14px;" d="M5552.88,191.54c-249.23,213.08-375.97,498.06-334.88,760.46,32.16,205.35,168.76,407.4,364.5,513,374.96,202.29,727.21-78.66,1512-263.25,626.31-147.31,1344.04-312.92,1647,0,377.77,390.18-244.48,1248.27,174,1644.75,240.04,227.41,674.95,163.19,906,83.25,375.09-129.77,561.53-421.56,628.6-549.45"/>
        <path style="fill: none; stroke: #98e6ed; stroke-linecap: round; stroke-linejoin: round; stroke-width: 14px;" d="M10472.45,2334.92c1.17-2.55,2.21-4.83,3.1-6.82"/>
      </g>
    </g>
  </g>
</svg>