<svg xmlns="http://www.w3.org/2000/svg" id="Layer_4" data-name="Layer 4" viewBox="237 207 142 142">
  <path d="M257.79,207h48.34v32.7h-69.13v-11.91c0-11.47,9.32-20.79,20.79-20.79Z" style="fill: #00e17b; stroke-width: 0px;"/>
  <path d="M239.57,298.09h48.34v32.7h-69.13v-11.91c0-11.47,9.32-20.79,20.79-20.79Z" transform="translate(-61.09 567.78) rotate(-90)" style="fill: #00e17b; stroke-width: 0px;"/>
  <path d="M330.66,316.3h48.34v32.7h-69.13v-11.91c0-11.47,9.32-20.79,20.79-20.79Z" transform="translate(688.87 665.3) rotate(180)" style="fill: #00e17b; stroke-width: 0px;"/>
  <path d="M348.88,225.22h48.34v32.7h-69.13v-11.91c0-11.47,9.32-20.79,20.79-20.79Z" transform="translate(604.22 -121.09) rotate(90)" style="fill: #00e17b; stroke-width: 0px;"/>
  <rect x="237" y="243.43" width="32.7" height="32.7" style="fill: #00e17b; stroke-width: 0px;"/>
  <rect x="309.87" y="207" width="32.7" height="32.7" style="fill: #00e17b; stroke-width: 0px;"/>
  <rect x="273.43" y="316.3" width="32.7" height="32.7" style="fill: #00e17b; stroke-width: 0px;"/>
  <rect x="346.3" y="279.87" width="32.7" height="32.7" style="fill: #00e17b; stroke-width: 0px;"/>
</svg>