<?xml version="1.0" encoding="UTF-8"?>
<svg id="Layer_1" data-name="Layer 1" xmlns="http://www.w3.org/2000/svg" viewBox="0 0 901.92 142">
  <path d="M20.79,0h48.34v32.7H0v-11.91C0,9.32,9.32,0,20.79,0Z" style="fill: #00e17b; stroke-width: 0px;"/>
  <path d="M2.57,91.09h48.34v32.7H-18.22v-11.91c0-11.47,9.32-20.79,20.79-20.79Z" transform="translate(-91.09 123.78) rotate(-90)" style="fill: #00e17b; stroke-width: 0px;"/>
  <path d="M93.66,109.3h48.34v32.7h-69.13v-11.91c0-11.47,9.32-20.79,20.79-20.79Z" transform="translate(214.87 251.3) rotate(180)" style="fill: #00e17b; stroke-width: 0px;"/>
  <path d="M111.88,18.22h48.34v32.7h-69.13v-11.91c0-11.47,9.32-20.79,20.79-20.79Z" transform="translate(160.22 -91.09) rotate(90)" style="fill: #00e17b; stroke-width: 0px;"/>
  <rect y="36.43" width="32.7" height="32.7" style="fill: #00e17b; stroke-width: 0px;"/>
  <rect x="72.87" width="32.7" height="32.7" style="fill: #00e17b; stroke-width: 0px;"/>
  <rect x="36.43" y="109.3" width="32.7" height="32.7" style="fill: #00e17b; stroke-width: 0px;"/>
  <rect x="109.3" y="72.87" width="32.7" height="32.7" style="fill: #00e17b; stroke-width: 0px;"/>
  <g>
    <path d="M206.98,109.05c-6.58-3.67-11.79-8.8-15.62-15.38-3.84-6.58-5.75-13.99-5.75-22.23s1.92-15.62,5.75-22.17c3.83-6.54,9.04-11.65,15.62-15.32,6.58-3.67,13.79-5.51,21.62-5.51s15.16,1.84,21.74,5.51c6.58,3.68,11.77,8.78,15.56,15.32,3.79,6.54,5.69,13.93,5.69,22.17s-1.9,15.65-5.69,22.23c-3.8,6.58-8.98,11.71-15.56,15.38-6.58,3.68-13.83,5.51-21.74,5.51s-15.04-1.83-21.62-5.51ZM243.5,98.76c4.36-2.54,7.77-6.18,10.23-10.9,2.46-4.72,3.69-10.19,3.69-16.41s-1.23-11.67-3.69-16.35c-2.46-4.68-5.87-8.28-10.23-10.78-4.36-2.5-9.33-3.75-14.9-3.75s-10.54,1.25-14.9,3.75c-4.36,2.5-7.77,6.1-10.24,10.78-2.46,4.68-3.69,10.13-3.69,16.35s1.23,11.69,3.69,16.41c2.46,4.72,5.87,8.36,10.24,10.9,4.36,2.54,9.33,3.82,14.9,3.82s10.54-1.27,14.9-3.82Z" style="fill: #fff; stroke-width: 0px;"/>
    <path d="M295.28,111.96c-4.16-1.9-7.45-4.48-9.87-7.75-2.42-3.27-3.72-6.92-3.88-10.96h14.29c.24,2.83,1.59,5.19,4.06,7.09,2.46,1.9,5.55,2.85,9.27,2.85s6.88-.75,9.02-2.24c2.14-1.49,3.21-3.41,3.21-5.75,0-2.5-1.19-4.36-3.57-5.57-2.38-1.21-6.16-2.54-11.32-4-5.01-1.37-9.08-2.71-12.23-4-3.15-1.29-5.87-3.27-8.18-5.94s-3.45-6.18-3.45-10.54c0-3.55,1.05-6.8,3.15-9.75,2.1-2.95,5.11-5.27,9.02-6.96,3.92-1.7,8.42-2.54,13.51-2.54,7.59,0,13.71,1.92,18.35,5.75,4.64,3.84,7.13,9.07,7.45,15.69h-13.81c-.24-2.99-1.45-5.37-3.63-7.15-2.18-1.77-5.13-2.66-8.84-2.66s-6.42.69-8.36,2.06c-1.94,1.37-2.91,3.19-2.91,5.45,0,1.78.65,3.27,1.94,4.48,1.29,1.21,2.87,2.16,4.72,2.85,1.86.69,4.6,1.56,8.24,2.6,4.85,1.29,8.82,2.6,11.93,3.94,3.11,1.33,5.79,3.29,8.05,5.88,2.26,2.58,3.43,6.02,3.51,10.29,0,3.8-1.05,7.19-3.15,10.17-2.1,2.99-5.07,5.33-8.9,7.02-3.84,1.7-8.34,2.54-13.51,2.54s-9.95-.95-14.11-2.85Z" style="fill: #fff; stroke-width: 0px;"/>
    <path d="M350.57,35.59c-1.7-1.7-2.54-3.79-2.54-6.3s.85-4.6,2.54-6.3c1.7-1.7,3.79-2.54,6.3-2.54s4.48.85,6.18,2.54,2.54,3.8,2.54,6.3-.85,4.6-2.54,6.3c-1.7,1.7-3.75,2.54-6.18,2.54s-4.6-.85-6.3-2.54ZM363.65,46.98v66.74h-13.81V46.98h13.81Z" style="fill: #fff; stroke-width: 0px;"/>
    <path d="M403.68,48.73c3.35-1.9,7.33-2.85,11.93-2.85v14.29h-3.51c-5.41,0-9.51,1.37-12.29,4.12-2.79,2.75-4.18,7.51-4.18,14.29v35.13h-13.81V46.98h13.81v9.69c2.02-3.39,4.7-6.04,8.05-7.93Z" style="fill: #fff; stroke-width: 0px;"/>
    <path d="M429.06,35.59c-1.7-1.7-2.54-3.79-2.54-6.3s.85-4.6,2.54-6.3c1.7-1.7,3.79-2.54,6.3-2.54s4.48.85,6.18,2.54,2.54,3.8,2.54,6.3-.85,4.6-2.54,6.3c-1.7,1.7-3.75,2.54-6.18,2.54s-4.6-.85-6.3-2.54ZM442.14,46.98v66.74h-13.81V46.98h13.81Z" style="fill: #fff; stroke-width: 0px;"/>
    <path d="M470.42,111.96c-4.16-1.9-7.45-4.48-9.87-7.75-2.42-3.27-3.72-6.92-3.88-10.96h14.29c.24,2.83,1.59,5.19,4.06,7.09,2.46,1.9,5.55,2.85,9.27,2.85s6.88-.75,9.02-2.24c2.14-1.49,3.21-3.41,3.21-5.75,0-2.5-1.19-4.36-3.57-5.57-2.38-1.21-6.16-2.54-11.33-4-5.01-1.37-9.08-2.71-12.23-4-3.15-1.29-5.88-3.27-8.18-5.94-2.3-2.67-3.45-6.18-3.45-10.54,0-3.55,1.05-6.8,3.15-9.75,2.1-2.95,5.11-5.27,9.02-6.96,3.92-1.7,8.42-2.54,13.51-2.54,7.59,0,13.71,1.92,18.35,5.75,4.64,3.84,7.12,9.07,7.45,15.69h-13.81c-.24-2.99-1.45-5.37-3.63-7.15-2.18-1.77-5.13-2.66-8.84-2.66s-6.42.69-8.36,2.06c-1.94,1.37-2.91,3.19-2.91,5.45,0,1.78.65,3.27,1.94,4.48,1.29,1.21,2.87,2.16,4.72,2.85,1.86.69,4.6,1.56,8.24,2.6,4.85,1.29,8.82,2.6,11.93,3.94,3.11,1.33,5.79,3.29,8.05,5.88,2.26,2.58,3.43,6.02,3.51,10.29,0,3.8-1.05,7.19-3.15,10.17-2.1,2.99-5.07,5.33-8.9,7.02-3.84,1.7-8.34,2.54-13.5,2.54s-9.95-.95-14.11-2.85Z" style="fill: #fff; stroke-width: 0px;"/>
    <path d="M557.63,49.28c3.83-6.54,9.04-11.65,15.62-15.32,6.58-3.67,13.79-5.51,21.62-5.51,8.96,0,16.94,2.2,23.92,6.6,6.98,4.4,12.05,10.64,15.2,18.71h-16.59c-2.18-4.44-5.21-7.75-9.08-9.93-3.88-2.18-8.36-3.27-13.45-3.27-5.57,0-10.54,1.25-14.9,3.75-4.36,2.5-7.77,6.1-10.23,10.78-2.46,4.68-3.69,10.13-3.69,16.35s1.23,11.67,3.69,16.35c2.46,4.68,5.88,8.3,10.23,10.84,4.36,2.54,9.33,3.82,14.9,3.82,5.09,0,9.57-1.09,13.45-3.27,3.88-2.18,6.9-5.49,9.08-9.93h16.59c-3.15,8.08-8.22,14.29-15.2,18.65-6.98,4.36-14.96,6.54-23.92,6.54-7.91,0-15.14-1.83-21.68-5.51-6.54-3.67-11.73-8.78-15.56-15.32-3.84-6.54-5.75-13.93-5.75-22.17s1.92-15.62,5.75-22.17Z" style="fill: #fff; stroke-width: 0px;"/>
    <path d="M663.91,24.08v89.63h-13.81V24.08h13.81Z" style="fill: #fff; stroke-width: 0px;"/>
    <path d="M693.95,110.5c-5.09-2.87-9.08-6.9-11.99-12.11s-4.36-11.24-4.36-18.11,1.49-12.8,4.48-18.05c2.99-5.25,7.06-9.29,12.23-12.11,5.17-2.83,10.94-4.24,17.32-4.24s12.15,1.41,17.32,4.24c5.17,2.83,9.24,6.86,12.23,12.11,2.99,5.25,4.48,11.26,4.48,18.05s-1.54,12.8-4.6,18.05c-3.07,5.25-7.25,9.31-12.54,12.17-5.29,2.87-11.12,4.3-17.5,4.3s-11.99-1.43-17.08-4.3ZM721.02,100.27c3.11-1.7,5.63-4.24,7.57-7.63,1.94-3.39,2.91-7.51,2.91-12.36s-.93-8.94-2.79-12.29c-1.86-3.35-4.32-5.87-7.39-7.57-3.07-1.7-6.38-2.54-9.93-2.54s-6.84.85-9.87,2.54c-3.03,1.7-5.43,4.22-7.21,7.57-1.78,3.35-2.66,7.45-2.66,12.29,0,7.19,1.84,12.74,5.51,16.65,3.67,3.92,8.3,5.88,13.87,5.88,3.55,0,6.88-.85,9.99-2.54Z" style="fill: #fff; stroke-width: 0px;"/>
    <path d="M819.8,46.98v66.74h-13.81v-7.87c-2.18,2.75-5.03,4.91-8.54,6.48-3.51,1.58-7.25,2.36-11.21,2.36-5.25,0-9.95-1.09-14.11-3.27-4.16-2.18-7.43-5.41-9.81-9.69-2.38-4.28-3.57-9.45-3.57-15.5v-39.24h13.69v37.19c0,5.98,1.49,10.56,4.48,13.75,2.99,3.19,7.06,4.78,12.23,4.78s9.27-1.59,12.29-4.78c3.03-3.19,4.54-7.77,4.54-13.75v-37.19h13.81Z" style="fill: #fff; stroke-width: 0px;"/>
    <path d="M837.54,62.24c2.79-5.17,6.58-9.19,11.38-12.05,4.8-2.87,10.15-4.3,16.05-4.3,4.36,0,8.66.95,12.9,2.85,4.24,1.9,7.61,4.42,10.11,7.57V24.08h13.93v89.63h-13.93v-10.05c-2.26,3.23-5.39,5.9-9.39,7.99-4,2.1-8.58,3.15-13.75,3.15-5.81,0-11.12-1.47-15.93-4.42-4.8-2.95-8.6-7.06-11.38-12.35-2.79-5.29-4.18-11.28-4.18-17.99s1.39-12.64,4.18-17.8ZM885.14,68.29c-1.9-3.39-4.38-5.98-7.45-7.75-3.07-1.78-6.38-2.67-9.93-2.67s-6.87.87-9.93,2.6c-3.07,1.74-5.55,4.28-7.45,7.63-1.9,3.35-2.85,7.33-2.85,11.93s.95,8.64,2.85,12.11c1.89,3.47,4.4,6.12,7.51,7.93,3.11,1.82,6.4,2.72,9.87,2.72s6.86-.89,9.93-2.66c3.07-1.78,5.55-4.38,7.45-7.81,1.9-3.43,2.85-7.45,2.85-12.05s-.95-8.6-2.85-11.99Z" style="fill: #fff; stroke-width: 0px;"/>
  </g>
</svg>